<svg width="651" height="517" viewBox="0 0 651 517" fill="none" xmlns="http://www.w3.org/2000/svg">
<path d="M133.812 155.875L110.875 156C110.458 156 110.25 155.792 110.25 155.375L110.5 67.4375C110.5 67.1042 110.667 66.9375 111 66.9375L134.938 66.8125C139.688 66.6875 143.979 67.7708 147.812 70.0625C151.688 72.3542 154.771 75.4583 157.062 79.375C159.396 83.25 160.562 87.5417 160.562 92.25V129C160.562 133.917 159.375 138.417 157 142.5C154.583 146.542 151.375 149.771 147.375 152.188C143.375 154.562 138.854 155.792 133.812 155.875ZM134.938 82.125L126 82.25L125.875 140.25H133.812C136.979 140.25 139.646 139.146 141.812 136.938C143.979 134.729 145.062 132.083 145.062 129V92.125C145.062 89.4167 144.062 87.0625 142.062 85.0625C140.062 83.0208 137.688 82.0417 134.938 82.125ZM185.75 156H171.25C170.833 156 170.625 155.792 170.625 155.375L170.75 67.4375C170.75 67.1042 170.917 66.9375 171.25 66.9375H185.625C185.958 66.9375 186.125 67.1042 186.125 67.4375L186.25 155.375C186.25 155.792 186.083 156 185.75 156ZM212.5 156H198C197.667 156 197.5 155.792 197.5 155.375L197.75 67.4375C197.75 67.1042 197.917 66.9375 198.25 66.9375H224.125C228.75 66.9375 233 68.0625 236.875 70.3125C240.75 72.5625 243.833 75.5833 246.125 79.375C248.458 83.1667 249.625 87.4583 249.625 92.25C249.625 95.375 249.146 98.2083 248.188 100.75C247.229 103.292 246.104 105.438 244.812 107.188C243.562 108.938 242.417 110.229 241.375 111.062C246 116.188 248.312 122.208 248.312 129.125L248.438 155.375C248.438 155.792 248.229 156 247.812 156H233.312C232.979 156 232.812 155.875 232.812 155.625V129.125C232.812 126.042 231.729 123.375 229.562 121.125C227.396 118.875 224.729 117.75 221.562 117.75H213.125L213 155.375C213 155.792 212.833 156 212.5 156ZM224.125 82.25H213.125V102.375H224.125C226.75 102.375 229.083 101.396 231.125 99.4375C233.208 97.4792 234.25 95.0833 234.25 92.25C234.25 89.5417 233.25 87.2083 231.25 85.25C229.25 83.25 226.875 82.25 224.125 82.25ZM301.125 156H259.75C259.417 156 259.25 155.792 259.25 155.375L259.375 67.4375C259.375 67.1042 259.542 66.9375 259.875 66.9375H301C301.333 66.9375 301.5 67.1458 301.5 67.5625V81.875C301.5 82.2083 301.333 82.375 301 82.375H274.75V102.375H301C301.333 102.375 301.5 102.542 301.5 102.875L301.625 117.375C301.625 117.708 301.458 117.875 301.125 117.875H274.75V140.25H301.125C301.458 140.25 301.625 140.458 301.625 140.875V155.5C301.625 155.833 301.458 156 301.125 156ZM340.312 156H325.875C325.5 156 325.312 155.792 325.312 155.375V82.375H308.688C308.271 82.375 308.062 82.1667 308.062 81.75L308.188 67.4375C308.188 67.1042 308.354 66.9375 308.688 66.9375H357.312C357.771 66.9375 358 67.1042 358 67.4375V81.75C358 82.1667 357.833 82.375 357.5 82.375H340.688L340.812 155.375C340.812 155.792 340.646 156 340.312 156ZM385.312 157.25C380.771 157.25 376.583 156.083 372.75 153.75C368.958 151.417 365.896 148.312 363.562 144.438C361.271 140.521 360.125 136.229 360.125 131.562L360.25 91C360.25 86.25 361.396 81.9792 363.688 78.1875C365.938 74.3542 368.979 71.2917 372.812 69C376.646 66.6667 380.812 65.5 385.312 65.5C389.979 65.5 394.167 66.6458 397.875 68.9375C401.625 71.2292 404.625 74.3125 406.875 78.1875C409.167 82.0208 410.312 86.2917 410.312 91L410.438 131.562C410.438 136.229 409.312 140.5 407.062 144.375C404.771 148.292 401.729 151.417 397.938 153.75C394.146 156.083 389.938 157.25 385.312 157.25ZM385.312 141.812C387.896 141.812 390.146 140.771 392.062 138.688C393.979 136.562 394.938 134.188 394.938 131.562L394.812 91C394.812 88.1667 393.917 85.7708 392.125 83.8125C390.333 81.8542 388.062 80.875 385.312 80.875C382.688 80.875 380.438 81.8333 378.562 83.75C376.688 85.6667 375.75 88.0833 375.75 91V131.562C375.75 134.354 376.688 136.771 378.562 138.812C380.438 140.812 382.688 141.812 385.312 141.812ZM449.062 155.375L464.938 67.4375C465.021 67.1042 465.229 66.9375 465.562 66.9375H484.125C484.458 66.9375 484.667 67.1042 484.75 67.4375L500 155.375C500.042 155.792 499.875 156 499.5 156H485.312C484.896 156 484.667 155.792 484.625 155.375L483.25 146H465.812L464.438 155.375C464.396 155.792 464.188 156 463.812 156H449.562C449.229 156 449.062 155.792 449.062 155.375ZM474.125 96.375L468.375 132.312H480.688L475.438 96.375L474.688 91.625L474.125 96.375ZM529.062 157.25C524.521 157.25 520.333 156.083 516.5 153.75C512.708 151.417 509.646 148.312 507.312 144.438C505.021 140.521 503.875 136.229 503.875 131.562L504 91C504 86.25 505.146 81.9792 507.438 78.1875C509.688 74.3542 512.729 71.2917 516.562 69C520.396 66.6667 524.562 65.5 529.062 65.5C533.729 65.5 537.917 66.6458 541.625 68.9375C545.375 71.2292 548.375 74.3125 550.625 78.1875C552.917 82.0208 554.062 86.2917 554.062 91L554.188 131.562C554.188 136.229 553.062 140.5 550.812 144.375C548.521 148.292 545.479 151.417 541.688 153.75C537.896 156.083 533.688 157.25 529.062 157.25ZM529.062 141.812C531.646 141.812 533.896 140.771 535.812 138.688C537.729 136.562 538.688 134.188 538.688 131.562L538.562 91C538.562 88.1667 537.667 85.7708 535.875 83.8125C534.083 81.8542 531.812 80.875 529.062 80.875C526.438 80.875 524.188 81.8333 522.312 83.75C520.438 85.6667 519.5 88.0833 519.5 91V131.562C519.5 134.354 520.438 136.771 522.312 138.812C524.188 140.812 526.438 141.812 529.062 141.812Z" fill="#7400B8"/>
<circle cx="241.5" cy="311.5" r="124.5" fill="#7400B8"/>
<circle cx="241.5" cy="311.5" r="99.6" fill="white"/>
<circle cx="241.5" cy="311.5" r="74.7" fill="#8D00C5"/>
<circle cx="241.5" cy="311.5" r="49.8" fill="white"/>
<circle cx="241.5" cy="311.5" r="24.9" fill="#BB83DF"/>
<path d="M239.559 313.827C237.736 310.598 238.875 306.501 242.104 304.678L391.078 220.532C394.307 218.708 398.403 219.847 400.227 223.076C402.051 226.306 400.912 230.402 397.683 232.226L248.709 316.371C245.48 318.195 241.383 317.056 239.559 313.827Z" fill="white" stroke="#7400B8" stroke-width="4"/>
<path d="M360.361 237.026L360.361 220.572L389.149 205.268L389.149 220.936L360.361 237.026Z" fill="white" stroke="#7400B8" stroke-width="4"/>
<path d="M411.067 241.766L397.197 232.913L368.808 248.945L382.014 257.375L411.067 241.766Z" fill="white" stroke="#7400B8" stroke-width="4"/>
<path d="M31.6445 400H9.18359C8.53255 400 8.20703 399.674 8.20703 399.023L8.59766 261.621C8.59766 261.1 8.85807 260.84 9.37891 260.84H47.8555C60.0951 260.84 69.763 264.583 76.8594 272.07C84.0208 279.492 87.6016 289.616 87.6016 302.441C87.6016 311.816 85.7461 319.987 82.0352 326.953C78.2591 333.854 73.3763 339.193 67.3867 342.969C61.3971 346.745 54.8867 348.633 47.8555 348.633H32.6211V399.023C32.6211 399.674 32.2956 400 31.6445 400ZM47.8555 284.57L32.6211 284.766V324.414H47.8555C52.0872 324.414 55.7656 322.396 58.8906 318.359C62.0156 314.258 63.5781 308.952 63.5781 302.441C63.5781 297.233 62.1784 292.969 59.3789 289.648C56.5794 286.263 52.7383 284.57 47.8555 284.57Z" fill="#7400B8"/>
<path d="M420.109 400H400.09C399.048 400 398.527 399.544 398.527 398.633L398.332 262.402C398.332 261.361 398.853 260.84 399.895 260.84H417.961L451.75 339.648L450.773 262.402C450.773 261.361 451.359 260.84 452.531 260.84H472.355C473.137 260.84 473.527 261.361 473.527 262.402L473.723 398.828C473.723 399.609 473.397 400 472.746 400H455.168L420.5 326.367L421.965 398.438C421.965 399.479 421.346 400 420.109 400ZM533.781 400H511.223C510.637 400 510.344 399.674 510.344 399.023V284.961H484.367C483.716 284.961 483.391 284.635 483.391 283.984L483.586 261.621C483.586 261.1 483.846 260.84 484.367 260.84H560.344C561.06 260.84 561.418 261.1 561.418 261.621V283.984C561.418 284.635 561.158 284.961 560.637 284.961H534.367L534.562 399.023C534.562 399.674 534.302 400 533.781 400ZM604.094 401.953C596.997 401.953 590.454 400.13 584.465 396.484C578.54 392.839 573.755 387.988 570.109 381.934C566.529 375.814 564.738 369.108 564.738 361.816L564.934 298.438C564.934 291.016 566.724 284.342 570.305 278.418C573.82 272.428 578.573 267.643 584.562 264.062C590.552 260.417 597.062 258.594 604.094 258.594C611.385 258.594 617.928 260.384 623.723 263.965C629.582 267.546 634.27 272.363 637.785 278.418C641.366 284.408 643.156 291.081 643.156 298.438L643.352 361.816C643.352 369.108 641.594 375.781 638.078 381.836C634.497 387.956 629.745 392.839 623.82 396.484C617.896 400.13 611.32 401.953 604.094 401.953ZM604.094 377.832C608.13 377.832 611.646 376.204 614.641 372.949C617.635 369.629 619.133 365.918 619.133 361.816L618.938 298.438C618.938 294.01 617.538 290.267 614.738 287.207C611.939 284.147 608.391 282.617 604.094 282.617C599.992 282.617 596.477 284.115 593.547 287.109C590.617 290.104 589.152 293.88 589.152 298.438V361.816C589.152 366.178 590.617 369.954 593.547 373.145C596.477 376.27 599.992 377.832 604.094 377.832Z" fill="#7400B8"/>
</svg>
